<svg xmlns="http://www.w3.org/2000/svg" width="190.715" height="160.78" viewBox="0 0 190.715 160.78">
  <g id="Group_3796" data-name="Group 3796" transform="translate(127.183 -102.891)">
    <g id="Group_3747" data-name="Group 3747" transform="translate(-96.418 115.747)">
      <circle id="Ellipse_6" data-name="Ellipse 6" cx="67.814" cy="67.814" r="67.814" fill="#fff"/>
    </g>
    <g id="Group_3748" data-name="Group 3748" transform="translate(-61.221 162.437)">
      <path id="Path_1251" data-name="Path 1251" d="M-91.2,168.2a3.905,3.905,0,0,1-2.759-1.144l-15.182-15.182a3.906,3.906,0,0,1,0-5.519,3.9,3.9,0,0,1,5.519,0L-91.2,158.778l39.489-39.485a3.9,3.9,0,0,1,5.519,0,3.9,3.9,0,0,1,0,5.519l-42.248,42.244A3.892,3.892,0,0,1-91.2,168.2Z" transform="translate(110.282 -118.149)" fill="#374354"/>
    </g>
    <g id="Group_3749" data-name="Group 3749" transform="translate(17.953 102.892)">
      <circle id="Ellipse_7" data-name="Ellipse 7" cx="11.171" cy="11.171" r="11.171" fill="#3ff5b8"/>
    </g>
    <g id="Group_3750" data-name="Group 3750" transform="translate(-93.877 245.216)">
      <circle id="Ellipse_8" data-name="Ellipse 8" cx="9.228" cy="9.228" r="9.228" fill="#3ff5b8"/>
    </g>
    <g id="Group_3751" data-name="Group 3751" transform="translate(31.067 234.901)">
      <circle id="Ellipse_9" data-name="Ellipse 9" cx="6.346" cy="6.346" r="6.346" fill="#fccd2f"/>
    </g>
    <g id="Group_3752" data-name="Group 3752" transform="translate(-127.182 166.214)">
      <circle id="Ellipse_10" data-name="Ellipse 10" cx="6.346" cy="6.346" r="6.346" fill="#fccd2f"/>
    </g>
    <g id="Group_3753" data-name="Group 3753" transform="translate(57.282 150.008)">
      <circle id="Ellipse_11" data-name="Ellipse 11" cx="3.125" cy="3.125" r="3.125" fill="#fccd2f"/>
    </g>
    <g id="Group_3754" data-name="Group 3754" transform="translate(-112.415 242.091)">
      <circle id="Ellipse_12" data-name="Ellipse 12" cx="3.125" cy="3.125" r="3.125" fill="#fccd2f"/>
    </g>
    <g id="Group_3755" data-name="Group 3755" transform="translate(-96.393 115.747)">
      <circle id="Ellipse_13" data-name="Ellipse 13" cx="3.125" cy="3.125" r="3.125" fill="#3ff5b8"/>
    </g>
  </g>
</svg>
