<svg xmlns="http://www.w3.org/2000/svg" xmlns:xlink="http://www.w3.org/1999/xlink" width="214" height="214" viewBox="0 0 214 214">
  <defs>
    <filter id="Ellipse_1" x="0" y="0" width="214" height="214" filterUnits="userSpaceOnUse">
      <feOffset input="SourceAlpha"/>
      <feGaussianBlur stdDeviation="10" result="blur"/>
      <feFlood flood-color="#374354" flood-opacity="0.149"/>
      <feComposite operator="in" in2="blur"/>
      <feComposite in="SourceGraphic"/>
    </filter>
  </defs>
  <g id="Group_3809" data-name="Group 3809" transform="translate(-311 -2331)">
    <g transform="matrix(1, 0, 0, 1, 311, 2331)" filter="url(#Ellipse_1)">
      <circle id="Ellipse_1-2" data-name="Ellipse 1" cx="77" cy="77" r="77" transform="translate(30 30)" fill="#fff"/>
    </g>
    <g id="Group_3803" data-name="Group 3803" transform="translate(383 2403)">
      <path id="Path_1358" data-name="Path 1358" d="M608.005,2512.309a3.039,3.039,0,1,0,3.04,3.039A3.043,3.043,0,0,0,608.005,2512.309Zm.99,3.039a.99.99,0,1,1-.99-.99A.992.992,0,0,1,609,2515.348Z" transform="translate(-545.406 -2504.296)" fill="#374354"/>
      <path id="Path_1359" data-name="Path 1359" d="M536.245,2514.358h13.277a1.025,1.025,0,1,0,0-2.049H536.245a1.025,1.025,0,0,0,0,2.049Z" transform="translate(-510.143 -2504.296)" fill="#374354"/>
      <path id="Path_1360" data-name="Path 1360" d="M563.353,2520.459H536.245a1.025,1.025,0,0,0,0,2.049h27.107a1.025,1.025,0,1,0,0-2.049Z" transform="translate(-510.143 -2508.416)" fill="#374354"/>
      <path id="Path_1361" data-name="Path 1361" d="M495.55,2518.206a11.01,11.01,0,0,0,7.468-2.911H547a8.142,8.142,0,0,0,0-16.283H503.018a11.05,11.05,0,1,0-7.467,19.194Zm-9-11.052a9,9,0,1,1,9,9A9.014,9.014,0,0,1,486.547,2507.154ZM547,2513.246H504.769a11.035,11.035,0,0,0,0-12.185H547a6.092,6.092,0,0,1,0,12.185Z" transform="translate(-484.498 -2496.101)" fill="#374354"/>
      <path id="Path_1362" data-name="Path 1362" d="M500.72,2512.087h0a.979.979,0,0,0,.885-.014c.2-.1.426-.222.656-.357q.194-.115.371-.23v5.816a1.421,1.421,0,0,0,.312,1.012,1.023,1.023,0,0,0,.778.327,1.058,1.058,0,0,0,.779-.317,1.48,1.48,0,0,0,.362-1v-8.689a.881.881,0,0,0-.892-.887,1.1,1.1,0,0,0-.966.5l-.125.155a6.43,6.43,0,0,1-.72.792,6.5,6.5,0,0,1-1.188.837,1.221,1.221,0,0,0-.747,1.3A.968.968,0,0,0,500.72,2512.087Z" transform="translate(-492.443 -2501.992)" fill="#374354"/>
      <path id="Path_1363" data-name="Path 1363" d="M547,2596.637H503.018a11.052,11.052,0,1,0,0,16.283H547a8.141,8.141,0,0,0,0-16.283Zm0,14.233H504.769a11.035,11.035,0,0,0,0-12.185H547a6.092,6.092,0,0,1,0,12.185Zm-42.446-6.092a9.026,9.026,0,1,1-2.464-6.181A8.96,8.96,0,0,1,504.554,2604.778Z" transform="translate(-484.498 -2545.46)" fill="#374354"/>
      <path id="Path_1364" data-name="Path 1364" d="M608.005,2609.934a3.039,3.039,0,1,0,3.04,3.039A3.043,3.043,0,0,0,608.005,2609.934Zm.99,3.039a.99.99,0,1,1-.99-.99A.992.992,0,0,1,609,2612.973Z" transform="translate(-545.406 -2553.654)" fill="#374354"/>
      <path id="Path_1365" data-name="Path 1365" d="M536.245,2611.983h13.277a1.025,1.025,0,1,0,0-2.049H536.245a1.025,1.025,0,0,0,0,2.049Z" transform="translate(-510.143 -2553.654)" fill="#374354"/>
      <path id="Path_1366" data-name="Path 1366" d="M563.353,2618.084H536.245a1.025,1.025,0,0,0,0,2.049h27.107a1.025,1.025,0,1,0,0-2.049Z" transform="translate(-510.143 -2557.775)" fill="#374354"/>
      <path id="Path_1367" data-name="Path 1367" d="M505.583,2609.866a2.554,2.554,0,0,0,.368-.443,2.586,2.586,0,0,0,.425-1.439,2.938,2.938,0,0,0-.432-1.531,3.015,3.015,0,0,0-1.242-1.134,3.736,3.736,0,0,0-1.714-.4,3.313,3.313,0,0,0-3.3,2.341,1.018,1.018,0,0,0,.665,1.285,1.037,1.037,0,0,0,.836-.029,1.32,1.32,0,0,0,.664-.7,1.373,1.373,0,0,1,.342-.573,1.124,1.124,0,0,1,.821-.3,1.08,1.08,0,0,1,.8.291.953.953,0,0,1,.294.731.879.879,0,0,1-.384.811,1.95,1.95,0,0,1-.946.313,1.009,1.009,0,0,0-.931.981.938.938,0,0,0,.281.754.962.962,0,0,0,.77.226,1.743,1.743,0,0,1,.242-.018,1.356,1.356,0,0,1,1.019.39,1.329,1.329,0,0,1,.392,1.007,1.465,1.465,0,0,1-.437,1.1,1.425,1.425,0,0,1-1.074.439,1.225,1.225,0,0,1-.872-.32,1.765,1.765,0,0,1-.446-.793,1.1,1.1,0,0,0-1.357-.715,1.113,1.113,0,0,0-.843,1.29,3.4,3.4,0,0,0,1.02,1.658,3.6,3.6,0,0,0,2.491.9,3.808,3.808,0,0,0,2.726-1.036,3.406,3.406,0,0,0,1.1-2.552,3.05,3.05,0,0,0-.587-1.9A2.639,2.639,0,0,0,505.583,2609.866Z" transform="translate(-492.081 -2551.118)" fill="#374354"/>
      <path id="Path_1368" data-name="Path 1368" d="M497.658,2567.2a3.039,3.039,0,1,0-3.039-3.039A3.043,3.043,0,0,0,497.658,2567.2Zm-.99-3.039a.99.99,0,1,1,.99.99A.991.991,0,0,1,496.668,2564.161Z" transform="translate(-489.615 -2528.975)" fill="#374354"/>
      <path id="Path_1369" data-name="Path 1369" d="M548.987,2563.17h12.138a1.025,1.025,0,1,0,0-2.049H548.987a1.025,1.025,0,1,0,0,2.049Z" transform="translate(-516.585 -2528.975)" fill="#374354"/>
      <path id="Path_1370" data-name="Path 1370" d="M518.71,2571.321h27.107a1.025,1.025,0,1,0,0-2.05H518.71a1.025,1.025,0,1,0,0,2.05Z" transform="translate(-501.277 -2533.095)" fill="#374354"/>
      <path id="Path_1371" data-name="Path 1371" d="M544.089,2544.913a11.006,11.006,0,0,0-7.468,2.912H492.638a8.141,8.141,0,0,0,0,16.283h43.983a11.05,11.05,0,1,0,7.468-19.194Zm-6.54,4.872a8.986,8.986,0,1,1-2.464,6.181A9.037,9.037,0,0,1,537.549,2549.785Zm-44.91.089H534.87a11.034,11.034,0,0,0,0,12.184H492.638a6.092,6.092,0,0,1,0-12.184Z" transform="translate(-484.498 -2520.78)" fill="#374354"/>
      <path id="Path_1372" data-name="Path 1372" d="M598.7,2566.994H603.9c.022,0,.052,0,.089,0a1.165,1.165,0,0,0,.771-.272,1.035,1.035,0,0,0,.335-.806,1.094,1.094,0,0,0-1.049-1.108h-3.184c.206-.191.552-.5,1.136-.986a20.124,20.124,0,0,0,1.912-1.78,5.016,5.016,0,0,0,.889-1.34,3.475,3.475,0,0,0,.282-1.359,3.08,3.08,0,0,0-.983-2.315,3.621,3.621,0,0,0-2.592-.925,3.778,3.778,0,0,0-2.569.854,3.294,3.294,0,0,0-1.02,1.766,1.065,1.065,0,0,0,.135.788,1.131,1.131,0,0,0,.728.5,1.034,1.034,0,0,0,.806-.129,1.246,1.246,0,0,0,.529-.749,1.248,1.248,0,0,1,.333-.639,1.367,1.367,0,0,1,1.032-.372,1.33,1.33,0,0,1,.982.35,1.1,1.1,0,0,1,.355.841,2.017,2.017,0,0,1-.464,1.147,13,13,0,0,1-2.076,1.988,12.933,12.933,0,0,0-1.644,1.553,5.1,5.1,0,0,0-.8,1.252l-.005.011a1.372,1.372,0,0,0-.1,1.281A1.053,1.053,0,0,0,598.7,2566.994Zm5.334-1.9Z" transform="translate(-541.689 -2526.439)" fill="#374354"/>
    </g>
  </g>
</svg>
