<svg xmlns="http://www.w3.org/2000/svg" xmlns:xlink="http://www.w3.org/1999/xlink" width="214" height="214" viewBox="0 0 214 214">
  <defs>
    <filter id="Ellipse_1" x="0" y="0" width="214" height="214" filterUnits="userSpaceOnUse">
      <feOffset input="SourceAlpha"/>
      <feGaussianBlur stdDeviation="10" result="blur"/>
      <feFlood flood-color="#374354" flood-opacity="0.149"/>
      <feComposite operator="in" in2="blur"/>
      <feComposite in="SourceGraphic"/>
    </filter>
  </defs>
  <g id="Group_3810" data-name="Group 3810" transform="translate(-500 -2331)">
    <g transform="matrix(1, 0, 0, 1, 500, 2331)" filter="url(#Ellipse_1)">
      <circle id="Ellipse_1-2" data-name="Ellipse 1" cx="77" cy="77" r="77" transform="translate(30 30)" fill="#fff"/>
    </g>
    <g id="Group_3804" data-name="Group 3804" transform="translate(569 2403)">
      <path id="Path_1373" data-name="Path 1373" d="M800.144,2550.309a1.107,1.107,0,0,0-1.442.61,4.042,4.042,0,0,1-6.6,1.336,3.979,3.979,0,0,1-.885-1.334,1.107,1.107,0,0,0-2.053.828,6.256,6.256,0,0,0,11.592,0,1.107,1.107,0,0,0-.61-1.442Zm0,0" transform="translate(-737.534 -2520.634)" fill="#374354"/>
      <path id="Path_1374" data-name="Path 1374" d="M786.992,2535.173a1.107,1.107,0,0,0-1.107,1.107v.614a1.107,1.107,0,0,0,2.214,0v-.614a1.107,1.107,0,0,0-1.107-1.107Zm0,0" transform="translate(-735.932 -2513.083)" fill="#374354"/>
      <path id="Path_1375" data-name="Path 1375" d="M812.523,2535.173a1.107,1.107,0,0,0-1.107,1.107v.614a1.107,1.107,0,0,0,2.214,0v-.614a1.107,1.107,0,0,0-1.107-1.107Zm0,0" transform="translate(-748.737 -2513.083)" fill="#374354"/>
      <path id="Path_1376" data-name="Path 1376" d="M723.972,2550.309a1.107,1.107,0,0,0-1.442.61,4.04,4.04,0,0,1-7.486,0,1.107,1.107,0,0,0-2.054.828,6.255,6.255,0,0,0,11.591,0,1.106,1.106,0,0,0-.609-1.442Zm0,0" transform="translate(-699.328 -2520.634)" fill="#374354"/>
      <path id="Path_1377" data-name="Path 1377" d="M710.821,2535.173a1.107,1.107,0,0,0-1.107,1.107v.614a1.107,1.107,0,0,0,2.214,0v-.614a1.107,1.107,0,0,0-1.107-1.107Zm0,0" transform="translate(-697.726 -2513.083)" fill="#374354"/>
      <path id="Path_1378" data-name="Path 1378" d="M736.352,2535.173a1.107,1.107,0,0,0-1.107,1.107v.614a1.107,1.107,0,0,0,2.214,0v-.614a1.107,1.107,0,0,0-1.107-1.107Zm0,0" transform="translate(-710.531 -2513.083)" fill="#374354"/>
      <path id="Path_1379" data-name="Path 1379" d="M760.129,2506.781a1.107,1.107,0,0,0,1.107-1.107V2502.6a7.923,7.923,0,0,0-7.913-7.913h-1.488l-.181-.417a5.67,5.67,0,0,0-5.206-3.418H739.1a14.19,14.19,0,0,0-14.174,14.173v22.6a5.95,5.95,0,0,0,5.943,5.943h6.332v1.563H711v-2.113a13.832,13.832,0,0,0,7.826-10.734,4.081,4.081,0,0,0,4.072-4.076v-1.4a4.059,4.059,0,0,0-.951-2.613l2.547-10.084a1.107,1.107,0,1,0-2.146-.542l-2.359,9.335a4.059,4.059,0,0,0-1.048-.169V2509a1.107,1.107,0,0,0-1.431-1.059c-6.067,1.861-11.384,1.763-15.376-.285a10.829,10.829,0,0,1-4.241-3.666,1.107,1.107,0,0,0-2.072.542c0,2.743-.586,3.336-3.48,3.531a1.106,1.106,0,0,0-1.032,1.1v3.567a4.042,4.042,0,0,0-1.159.2,36.052,36.052,0,0,1-.868-3.852c-.172-1.385-.052-5.516.007-6.99,0-.015,0-.031,0-.046a3.291,3.291,0,0,1,3.287-3.287h1.679a1.109,1.109,0,0,0,.783-.324l3.96-3.961a3.306,3.306,0,0,1,3.087-.873l13.925,3.312a9.694,9.694,0,0,0,8.281-1.846.092.092,0,0,1,.129-.006.091.091,0,0,1,.047.119l-.838,3.317a1.107,1.107,0,1,0,2.146.543l.839-3.319a2.325,2.325,0,0,0-3.7-2.387,7.473,7.473,0,0,1-6.389,1.425l-13.924-3.312a5.537,5.537,0,0,0-5.166,1.462l-3.636,3.636h-1.22a5.508,5.508,0,0,0-5.5,5.478,73.19,73.19,0,0,0,.008,7.332,42.782,42.782,0,0,0,1.137,4.938,4.056,4.056,0,0,0-.87,2.513v1.4a4.08,4.08,0,0,0,4.069,4.076,13.806,13.806,0,0,0,7.827,10.734v2.114h-2.306a9.035,9.035,0,0,0-1.993.221,3.132,3.132,0,0,0-2.72-1.584h-2.7a3.871,3.871,0,0,0-3.866,3.867v6.022a3.87,3.87,0,0,0,2.253,3.512v11.8a1.107,1.107,0,0,0,1.107,1.107h32.2a1.108,1.108,0,0,0,1.107-1.107V2544.16a9,9,0,0,0-3.113-6.809h17.994v.552c0,3.192,4.793,5.956,5.34,6.26a1.109,1.109,0,0,0,1.078,0c.546-.3,5.337-3.067,5.337-6.26v-.552h2.306a6.817,6.817,0,0,1,6.809,6.809v13.709h-3.1v-7.417a1.107,1.107,0,1,0-2.214,0v7.417H733.411v-12.732a1.107,1.107,0,0,0-1.107-1.107h-6.641a1.107,1.107,0,1,0,0,2.214H731.2v12.732a1.108,1.108,0,0,0,1.107,1.107h26.879a1.107,1.107,0,0,0,1.107-1.107V2544.16a9.033,9.033,0,0,0-9.023-9.023h-2.306v-1.563h6.334a5.949,5.949,0,0,0,5.941-5.943V2510.9a1.107,1.107,0,1,0-2.214,0v2.505a4.04,4.04,0,0,0-2.122-.672V2507.4a12.32,12.32,0,0,0-2.214-7.071,1.106,1.106,0,0,0-1.611-.224,27.347,27.347,0,0,1-22.479,5.7,1.106,1.106,0,0,0-1.315,1.03c-.009.18-.014.367-.014.569v5.338a4.04,4.04,0,0,0-2.12.672v-8.381a11.973,11.973,0,0,1,11.959-11.959h7.344a3.455,3.455,0,0,1,3.172,2.084l.469,1.085a1.109,1.109,0,0,0,1.016.667h2.216a5.705,5.705,0,0,1,5.7,5.7v3.072a1.107,1.107,0,0,0,1.107,1.107Zm-66.6,14.344a1.106,1.106,0,0,0-1.105-1.05H691.42a1.863,1.863,0,0,1-1.86-1.862v-1.4a1.862,1.862,0,0,1,1.86-1.861h.99a1.108,1.108,0,0,0,1.107-1.108v-3.674c2.307-.33,3.606-1.229,4.169-2.981a14.33,14.33,0,0,0,3.287,2.365c5.169,2.721,11.188,2.112,15.749.914v3.375a1.107,1.107,0,0,0,1.107,1.108h.988a1.863,1.863,0,0,1,1.861,1.861v1.4a1.864,1.864,0,0,1-1.861,1.862h-1.007a1.107,1.107,0,0,0-1.106,1.049,11.614,11.614,0,0,1-7.238,10.153l-.02.009a11.639,11.639,0,0,1-8.651,0l-.064-.024a11.592,11.592,0,0,1-7.2-10.136Zm15.249,12.714v4.063a3.662,3.662,0,0,1-7.324,0v-4.063a13.814,13.814,0,0,0,7.324,0Zm-20.906,9.823v-6.022a1.654,1.654,0,0,1,1.652-1.653h2.7a.921.921,0,0,1,.92.92v7.487a.921.921,0,0,1-.92.92h-2.7a1.654,1.654,0,0,1-1.652-1.652Zm32.236.5v13.709h-3.1v-7.417a1.107,1.107,0,1,0-2.214,0v7.417H695.445v-7.417a1.107,1.107,0,1,0-2.214,0v7.417h-3.1v-10.34h2.1a3.138,3.138,0,0,0,3.134-3.134v-6.859a6.818,6.818,0,0,1,1.579-.185h2.306v.552a5.876,5.876,0,1,0,11.753,0v-.552H713.3a6.817,6.817,0,0,1,6.809,6.809Zm26.635-6.257c0,1.227-1.992,2.961-3.662,4.006-1.671-1.045-3.664-2.779-3.664-4.006v-4.063a13.846,13.846,0,0,0,7.326,0Zm12.275-16.287v6.015a3.732,3.732,0,0,1-3.727,3.729h-3.647q.5-.395.965-.837a13.758,13.758,0,0,0,4.174-8.233,4.048,4.048,0,0,0,2.235-.674Zm-29.636-6.668h.988a1.108,1.108,0,0,0,1.107-1.108v-5.647a29.58,29.58,0,0,0,22-5.6,10.125,10.125,0,0,1,1.2,4.8v6.443a1.107,1.107,0,0,0,1.107,1.108h.99a1.862,1.862,0,0,1,1.86,1.861v1.4a1.863,1.863,0,0,1-1.86,1.862h-1.007a1.106,1.106,0,0,0-1.106,1.049,11.618,11.618,0,0,1-7.219,10.145l-.059.024a11.647,11.647,0,0,1-8.632-.007l-.065-.026a11.588,11.588,0,0,1-7.2-10.136,1.107,1.107,0,0,0-1.106-1.05h-1.007a1.864,1.864,0,0,1-1.861-1.862v-1.4h0a1.864,1.864,0,0,1,1.862-1.861Zm0,7.342a13.777,13.777,0,0,0,5.137,9.07h-3.643a3.732,3.732,0,0,1-3.729-3.729v-6.014a4.053,4.053,0,0,0,2.235.673Zm0,0" transform="translate(-685.661 -2490.853)" fill="#374354"/>
    </g>
  </g>
</svg>
