<svg xmlns="http://www.w3.org/2000/svg" width="39.317" height="39.318" viewBox="0 0 39.317 39.318">
  <g id="Group_20" data-name="Group 20" transform="translate(0 0)">
    <path id="Path_6" data-name="Path 6" d="M28.468,0H10.85A10.862,10.862,0,0,0,0,10.851V28.468a10.862,10.862,0,0,0,10.85,10.85H28.468a10.863,10.863,0,0,0,10.85-10.85V10.851A10.862,10.862,0,0,0,28.468,0Zm7.362,28.468a7.37,7.37,0,0,1-7.362,7.362H10.85a7.37,7.37,0,0,1-7.362-7.362V10.851A7.37,7.37,0,0,1,10.85,3.488H28.468a7.37,7.37,0,0,1,7.362,7.362Zm0,0" transform="translate(0 0)" fill="#374354"/>
    <path id="Path_7" data-name="Path 7" d="M42.9,32.778a10.131,10.131,0,1,0,10.132,10.13A10.142,10.142,0,0,0,42.9,32.778Zm0,16.772a6.642,6.642,0,1,1,6.643-6.642A6.65,6.65,0,0,1,42.9,49.55Zm0,0" transform="translate(-23.246 -23.249)" fill="#374354"/>
    <path id="Path_8" data-name="Path 8" d="M97.7,22.6a2.557,2.557,0,1,0,1.809.748A2.566,2.566,0,0,0,97.7,22.6Zm0,0" transform="translate(-67.48 -16.032)" fill="#374354"/>
  </g>
</svg>
