<svg xmlns="http://www.w3.org/2000/svg" viewBox="0 0 44 34" width="44" height="34">
	<defs>
		<clipPath clipPathUnits="userSpaceOnUse" id="cp1">
			<path d="M-336 -30L1584 -30L1584 6302L-336 6302Z" />
		</clipPath>
	</defs>
	<style>
		tspan { white-space:pre }
		.shp0 { fill: #3ff5b8 } 
	</style>
	<g id="Home" clip-path="url(#cp1)">
		<g id="Group 6">
			<g id="Group 4">
				<path id="Path 17" class="shp0" d="M26.39 33.25C22.59 33.25 17.22 30.62 10.42 25.44C5.51 21.7 1.68 18.01 1.52 17.86C1.19 17.53 1 17.09 1 16.62C1 16.16 1.19 15.71 1.52 15.39C3.15 13.82 17.71 0 26.39 0C35.55 0 43.01 7.46 43.01 16.62C43.01 17.57 42.24 18.34 41.3 18.34L29.79 18.34C28.84 18.34 28.07 17.57 28.07 16.62C28.07 15.68 28.84 14.91 29.79 14.91L39.47 14.91C38.63 8.44 33.08 3.43 26.39 3.43C23.44 3.43 18.51 5.95 12.5 10.53C9.42 12.88 6.74 15.24 5.22 16.63C10.21 21.21 20.77 29.82 26.39 29.82C30.78 29.82 34.87 27.65 37.33 24C37.86 23.22 38.93 23.01 39.71 23.54C40.49 24.07 40.7 25.13 40.17 25.92C37.07 30.51 31.92 33.25 26.39 33.25Z" />
			</g>
		</g>
	</g>
</svg>