<svg id="Group_3108" data-name="Group 3108" xmlns="http://www.w3.org/2000/svg" width="30.829" height="24.23" viewBox="0 0 30.829 24.23">
  <path id="Path_1235" data-name="Path 1235" d="M112.532,268.381c.386.272,1.565,1.089,3.521,2.449s3.464,2.4,4.507,3.141c.113.079.357.255.731.521s.68.493.93.658.544.352.89.556a4.975,4.975,0,0,0,.992.465,2.608,2.608,0,0,0,.862.159H125a2.6,2.6,0,0,0,.856-.159,4.975,4.975,0,0,0,.992-.465c.351-.2.646-.391.9-.556s.556-.385.93-.658.612-.442.731-.521q1.582-1.105,8.05-5.59a8.193,8.193,0,0,0,2.1-2.12,4.5,4.5,0,0,0,.845-2.6,2.634,2.634,0,0,0-.816-1.945,2.663,2.663,0,0,0-1.933-.811H112.328a2.464,2.464,0,0,0-2.041.9,3.486,3.486,0,0,0-.714,2.24,4.037,4.037,0,0,0,.947,2.347,8.438,8.438,0,0,0,2.013,1.99Zm0,0" transform="translate(-109.567 -260.909)" fill="#374354"/>
  <path id="Path_1236" data-name="Path 1236" d="M138.678,263.784q-5.638,3.818-8.566,5.936c-.658.482-1.185.862-1.593,1.128a9.719,9.719,0,0,1-1.627.828,4.984,4.984,0,0,1-1.888.42h-.04a4.984,4.984,0,0,1-1.888-.42,9.721,9.721,0,0,1-1.627-.828c-.408-.266-.935-.646-1.587-1.128q-2.322-1.7-8.549-5.936a9.208,9.208,0,0,1-1.735-1.5l-.006,13.663a2.758,2.758,0,0,0,2.75,2.755l25.319-.006a2.654,2.654,0,0,0,1.945-.805,2.682,2.682,0,0,0,.811-1.945l.006-13.663a9.426,9.426,0,0,1-1.723,1.5Zm0,0" transform="translate(-109.572 -254.475)" fill="#374354"/>
</svg>
