<svg xmlns="http://www.w3.org/2000/svg" xmlns:xlink="http://www.w3.org/1999/xlink" width="232.522" height="224.027" viewBox="0 0 232.522 224.027">
  <defs>
    <filter id="Ellipse_1" x="17.089" y="0" width="214" height="214" filterUnits="userSpaceOnUse">
      <feOffset input="SourceAlpha"/>
      <feGaussianBlur stdDeviation="10" result="blur"/>
      <feFlood flood-color="#374354" flood-opacity="0.149"/>
      <feComposite operator="in" in2="blur"/>
      <feComposite in="SourceGraphic"/>
    </filter>
  </defs>
  <g id="Group_3964" data-name="Group 3964" transform="translate(-713.911 -2755)">
    <g id="Group_3962" data-name="Group 3962" transform="translate(-40 -277)">
      <g transform="matrix(1, 0, 0, 1, 753.91, 3032)" filter="url(#Ellipse_1)">
        <circle id="Ellipse_1-2" data-name="Ellipse 1" cx="77" cy="77" r="77" transform="translate(47.09 30)" fill="#fff"/>
      </g>
      <g id="Group_3960" data-name="Group 3960" transform="translate(1431.621 2210.65) rotate(90)">
        <path id="Path_1470" data-name="Path 1470" d="M980.112,597.921c.264.048.532.091.807.129q.643.094,1.319.153c.774.068,1.578.1,2.4.1,7.18,0,12.593-2.681,12.593-6.239s-5.413-6.239-12.593-6.239c-.825,0-1.627.036-2.4.1q-.677.06-1.323.153c-.274.038-.542.081-.807.129-4.809.863-8.062,3.1-8.062,5.852S975.3,597.057,980.112,597.921Zm-3.184-8.539a15.193,15.193,0,0,1,3.184-.988c.264-.054.532-.1.807-.146q.648-.1,1.323-.17c.778-.077,1.582-.117,2.4-.117a19.429,19.429,0,0,1,7.715,1.422c1.721.773,2.748,1.777,2.748,2.687s-1.027,1.914-2.748,2.687a19.428,19.428,0,0,1-7.715,1.422c-.818,0-1.622-.04-2.4-.117q-.675-.066-1.323-.17c-.274-.044-.542-.092-.807-.146a15.186,15.186,0,0,1-3.184-.988c-1.721-.773-2.748-1.777-2.748-2.687S975.207,590.154,976.928,589.382Z" transform="translate(-68.382 -52.191)" fill="#374354"/>
        <path id="Path_1471" data-name="Path 1471" d="M960.409,556.076l3.02-5.538a9.288,9.288,0,0,0,0-8.925l-3.02-5.54,3.057-5.607a3.693,3.693,0,0,0-3.242-5.46H916.786c-.178,0-.354-.006-.525-.006q-1.212,0-2.4.072c-.445.027-.885.062-1.323.1-.27.026-.538.055-.807.087a34.872,34.872,0,0,0-5.8,1.179,1.065,1.065,0,1,0,.6,2.043,32.462,32.462,0,0,1,5.195-1.075c.267-.036.537-.065.807-.092q.656-.068,1.323-.109,1.186-.079,2.4-.078a30.581,30.581,0,0,1,15.6,3.893c3.983,2.407,6.177,5.552,6.177,8.854s-2.194,6.447-6.177,8.854a30.581,30.581,0,0,1-15.6,3.892,36.7,36.7,0,0,1-4.834-.317c-.384-.051-.763-.108-1.141-.172q-.667-.111-1.318-.25a26.607,26.607,0,0,1-8.31-3.154c-3.985-2.407-6.178-5.553-6.178-8.854,0-3.81,2.928-7.4,8.036-9.857a1.065,1.065,0,0,0-.923-1.92c-5.875,2.823-9.243,7.116-9.243,11.777v37.158c0,4.077,2.559,7.869,7.2,10.678a35.331,35.331,0,0,0,33.412,0c4.647-2.809,7.206-6.6,7.206-10.678V539.877c0-4.076-2.559-7.869-7.206-10.678a30.32,30.32,0,0,0-4.3-2.063h31.554a1.563,1.563,0,0,1,1.372,2.311l-3.335,6.116a1.067,1.067,0,0,0,0,1.02l3.3,6.049a7.164,7.164,0,0,1,0,6.886l-3.3,6.048a1.066,1.066,0,0,0,0,1.019L961.6,562.7a1.563,1.563,0,0,1-1.372,2.31h-17a1.065,1.065,0,0,0,0,2.13h17a3.693,3.693,0,0,0,3.242-5.46Zm-22.367,20.959c0,3.3-2.194,6.447-6.177,8.854a33.22,33.22,0,0,1-31.207,0c-3.985-2.407-6.178-5.553-6.178-8.854V546.074a17.246,17.246,0,0,0,5.074,4.48,27.92,27.92,0,0,0,7.434,3.053q.769.2,1.562.366.545.115,1.1.212a38.062,38.062,0,0,0,6.609.568,32.734,32.734,0,0,0,16.706-4.2,17.231,17.231,0,0,0,5.076-4.48Z" fill="#374354"/>
      </g>
    </g>
    <g id="Group_3750" data-name="Group 3750" transform="translate(794.818 2953.434)">
      <g id="Ellipse_8" data-name="Ellipse 8" transform="translate(0 0)" fill="none" stroke="#3ff5b8" stroke-width="3">
        <circle cx="12.797" cy="12.797" r="12.797" stroke="none"/>
        <circle cx="12.797" cy="12.797" r="11.297" fill="none"/>
      </g>
    </g>
    <g id="Group_3751" data-name="Group 3751" transform="translate(925.834 2909.941)">
      <circle id="Ellipse_9" data-name="Ellipse 9" cx="8.8" cy="8.8" r="8.8" transform="translate(3 -9)" fill="#fccd2f"/>
    </g>
    <g id="Group_3752" data-name="Group 3752" transform="translate(743.384 2787.166)">
      <circle id="Ellipse_10" data-name="Ellipse 10" cx="8.8" cy="8.8" r="8.8" transform="translate(1 9)" fill="#fccd2f"/>
    </g>
    <g id="Group_3755" data-name="Group 3755" transform="translate(911.556 2795.367)">
      <circle id="Ellipse_13" data-name="Ellipse 13" cx="4.334" cy="4.334" r="4.334" fill="#3ff5b8"/>
    </g>
    <g id="Ellipse_17" data-name="Ellipse 17" transform="translate(725.471 2855.273) rotate(43)" fill="none" stroke="#fccd2f" stroke-width="3">
      <circle cx="8.475" cy="8.475" r="8.475" stroke="none"/>
      <circle cx="8.475" cy="8.475" r="6.975" fill="none"/>
    </g>
    <circle id="Ellipse_34" data-name="Ellipse 34" cx="3.45" cy="3.45" r="3.45" transform="translate(755.649 2954.391) rotate(43)" fill="#3ff5b8"/>
  </g>
</svg>
