<svg xmlns="http://www.w3.org/2000/svg" width="25.588" height="25.527" viewBox="0 0 25.588 25.527">
  <g id="Group_3107" data-name="Group 3107" transform="translate(0 0)">
    <g id="Group_3102" data-name="Group 3102">
      <path id="Path_1234" data-name="Path 1234" d="M110.523,268.511a2.067,2.067,0,0,0,.055,2.909l1.126,1.1.027-.022a6.386,6.386,0,0,0,1.613.913,6.546,6.546,0,0,0,1.646.41c.257.027,6.234.591,13.649-6.825,5.364-5.365,7.338-9.318,6.819-13.644a6.935,6.935,0,0,0-.41-1.641,6.508,6.508,0,0,0-.919-1.619l.033-.033-1.116-1.121a2.06,2.06,0,0,0-2.9-.055l-3.954,3.954a2.067,2.067,0,0,0,.055,2.909l.656.656,1.334,1.334-.213.383a18.61,18.61,0,0,1-8.257,8.257l-.394.219-1.991-1.991a2.06,2.06,0,0,0-2.9-.055l-3.954,3.954Zm0,0" transform="translate(-109.951 -248.319)" fill="#374354"/>
    </g>
  </g>
</svg>
