<svg xmlns="http://www.w3.org/2000/svg" xmlns:xlink="http://www.w3.org/1999/xlink" width="214" height="214" viewBox="0 0 214 214">
  <defs>
    <filter id="Ellipse_1" x="0" y="0" width="214" height="214" filterUnits="userSpaceOnUse">
      <feOffset input="SourceAlpha"/>
      <feGaussianBlur stdDeviation="10" result="blur"/>
      <feFlood flood-color="#374354" flood-opacity="0.149"/>
      <feComposite operator="in" in2="blur"/>
      <feComposite in="SourceGraphic"/>
    </filter>
  </defs>
  <g id="Group_3812" data-name="Group 3812" transform="translate(-1056 -2331)">
    <g transform="matrix(1, 0, 0, 1, 1056, 2331)" filter="url(#Ellipse_1)">
      <circle id="Ellipse_1-2" data-name="Ellipse 1" cx="77" cy="77" r="77" transform="translate(30 30)" fill="#fff"/>
    </g>
    <g id="Group_3807" data-name="Group 3807" transform="translate(1123 2399)">
      <path id="Path_1385" data-name="Path 1385" d="M1192.339,2565.5a1.164,1.164,0,0,0-1.164,1.164,1.478,1.478,0,1,1-2.957,0,1.164,1.164,0,0,0-2.328,0,3.807,3.807,0,1,0,7.613,0,1.163,1.163,0,0,0-1.164-1.164Zm0,0" transform="translate(-1126.323 -2524.012)" fill="#374354"/>
      <path id="Path_1386" data-name="Path 1386" d="M1155.2,2532.209l-3.276-1.049a1.372,1.372,0,0,1-.885-.9,21.135,21.135,0,0,0-3.1-6.127,22.429,22.429,0,0,0-2.069-2.441,28.882,28.882,0,0,0,.712-6.594c-.048-2.966-.641-4.706-1.811-5.319-.631-.331-2.55-1.335-12.935,3.418a3.783,3.783,0,0,0-.688.411c-.7-.189-1.416-.363-2.136-.519-.086-.019-.176-.036-.263-.054a15.854,15.854,0,0,0,1.425-5.9,1.164,1.164,0,1,0-2.327-.1,13.547,13.547,0,0,1-8.862,12.112,33.771,33.771,0,0,0-9.372,0,13.557,13.557,0,1,1,16.8-18.822,1.165,1.165,0,0,0,2.08-1.048,15.891,15.891,0,1,0-22.631,20.617h0q-1.085.283-2.152.637a1.164,1.164,0,0,0,.738,2.209,31.248,31.248,0,0,1,19.692,0,1.164,1.164,0,1,0,.738-2.209q-1.066-.356-2.152-.637h0a15.877,15.877,0,0,0,4.833-4.726c.321.063.64.128.954.2.418.091.835.188,1.247.29-.013.051-.027.1-.038.152a13.887,13.887,0,0,0,.11,7.084,8.425,8.425,0,0,0,3.088,4.34,9.794,9.794,0,0,0,5.73,1.818,7.685,7.685,0,0,0,3.714-.858,7.093,7.093,0,0,0,2.737-3.887q.5.587.953,1.2a18.78,18.78,0,0,1,2.757,5.453,3.7,3.7,0,0,0,2.4,2.415l3.277,1.05a2.061,2.061,0,0,1,1.437,1.969v5.434a2.062,2.062,0,0,1-1.437,1.97l-5.28,1.691a3.6,3.6,0,0,0-2.012,1.635,23.209,23.209,0,0,1-9.694,8.817,1.824,1.824,0,0,0-.957,1.286l-1.691,8.953a.523.523,0,0,1-.514.426h-5.5a.523.523,0,0,1-.514-.426l-.937-4.948a1.829,1.829,0,0,0-2.08-1.471,48.7,48.7,0,0,1-7.253.54,46.352,46.352,0,0,1-5.336-.3,1.844,1.844,0,0,0-2.017,1.48l-.89,4.7a.523.523,0,0,1-.514.426h-5.5a.525.525,0,0,1-.515-.428l-1.628-8.457a1.828,1.828,0,0,0-.94-1.271c-7.428-3.966-11.355-10.591-11.355-19.16a22.381,22.381,0,0,1,2.815-11.379,20.315,20.315,0,0,1,7.568-7.387,1.165,1.165,0,0,0-1.167-2.016,22.16,22.16,0,0,0-11.245,16.554h0c-.113-.01-.225-.02-.336-.031a5.8,5.8,0,0,0-.426-2.323,4.768,4.768,0,0,0-3.535-3.087,3.217,3.217,0,0,0-3.03,1.349,3.067,3.067,0,0,0-.583,3.346c.587,1.208,2.094,2.063,4.6,2.6q-.1.154-.227.31a5.713,5.713,0,0,1-4.35,2.3,1.222,1.222,0,0,0-1.192,1.216v.006a1.218,1.218,0,0,0,1.168,1.216c.084,0,.171.006.262.006,1.43,0,3.727-.528,5.933-3.294a6.625,6.625,0,0,0,.85-1.373c.22.024.431.046.633.065h0c-.04.631-.062,1.271-.062,1.923a24,24,0,0,0,3.435,12.849,23.548,23.548,0,0,0,8.947,8.255l1.583,8.221a2.854,2.854,0,0,0,2.8,2.322h5.5a2.853,2.853,0,0,0,2.8-2.322l.8-4.251a49.011,49.011,0,0,0,5.151.267,51.1,51.1,0,0,0,7.134-.5l.848,4.482a2.854,2.854,0,0,0,2.8,2.321h5.5a2.855,2.855,0,0,0,2.8-2.322l1.646-8.717a25.386,25.386,0,0,0,10.423-9.605,1.275,1.275,0,0,1,.708-.583l5.279-1.691a4.383,4.383,0,0,0,3.056-4.188V2536.4a4.383,4.383,0,0,0-3.056-4.187Zm-11.12-13.838c-.448,3.832-1.65,7.111-2.857,7.795a7.124,7.124,0,0,1-6.922-.813c-2.383-1.742-3.176-4.877-2.293-9.063a1.4,1.4,0,0,1,.8-.973c5.83-2.668,9.189-3.541,10.438-3.541a1.217,1.217,0,0,1,.423.057c.375.4.867,2.672.414,6.538Zm-62.555,12.927c-.121-.248.163-.685.344-.924a.926.926,0,0,1,.748-.454.758.758,0,0,1,.117.008,2.535,2.535,0,0,1,1.683,1.647,3.545,3.545,0,0,1,.244,1.1c-1.612-.334-2.864-.816-3.136-1.376Zm0,0" transform="translate(-1078.254 -2490.535)" fill="#374354"/>
    </g>
  </g>
</svg>
