<svg xmlns="http://www.w3.org/2000/svg" xmlns:xlink="http://www.w3.org/1999/xlink" width="214" height="214" viewBox="0 0 214 214">
  <defs>
    <filter id="Ellipse_1" x="0" y="0" width="214" height="214" filterUnits="userSpaceOnUse">
      <feOffset input="SourceAlpha"/>
      <feGaussianBlur stdDeviation="10" result="blur"/>
      <feFlood flood-color="#374354" flood-opacity="0.149"/>
      <feComposite operator="in" in2="blur"/>
      <feComposite in="SourceGraphic"/>
    </filter>
  </defs>
  <g id="Group_3811" data-name="Group 3811" transform="translate(-764 -2331)">
    <g transform="matrix(1, 0, 0, 1, 764, 2331)" filter="url(#Ellipse_1)">
      <circle id="Ellipse_1-2" data-name="Ellipse 1" cx="77" cy="77" r="77" transform="translate(30 30)" fill="#fff"/>
    </g>
    <g id="Group_3806" data-name="Group 3806" transform="translate(841 2398)">
      <path id="Path_1380" data-name="Path 1380" d="M942.113,2505.719a22.812,22.812,0,0,0-28.3,34.351,1.263,1.263,0,0,0,1.993-1.551,20.287,20.287,0,0,1,25.169-30.547,1.262,1.262,0,1,0,1.139-2.253Zm0,0" transform="translate(-901.52 -2495.738)" fill="#374354"/>
      <path id="Path_1381" data-name="Path 1381" d="M958.156,2524.284a1.263,1.263,0,1,0-2.254,1.139,20.286,20.286,0,0,1-30.546,25.166,1.263,1.263,0,0,0-1.551,1.993,22.812,22.812,0,0,0,34.351-28.3Zm0,0" transform="translate(-907.483 -2504.22)" fill="#374354"/>
      <g id="Group_3805" data-name="Group 3805" transform="translate(0 0)">
        <path id="Path_1382" data-name="Path 1382" d="M974.56,2514.861c-.312-.354-.642-.7-.977-1.039s-.684-.664-1.038-.976a1.262,1.262,0,0,0-1.673,1.891c.315.279.626.572.926.871s.591.609.87.925a1.262,1.262,0,1,0,1.892-1.671Zm0,0" transform="translate(-927.148 -2499.605)" fill="#374354"/>
        <path id="Path_1383" data-name="Path 1383" d="M956.249,2522.959a4.285,4.285,0,0,0,0-4.478l-1.66-2.723a1.778,1.778,0,0,1-.238-1.2l.5-3.145a4.283,4.283,0,0,0-1.719-4.146l-2.573-1.872a1.775,1.775,0,0,1-.681-1.019l-.749-3.1a4.284,4.284,0,0,0-3.168-3.168l-3.1-.75a1.772,1.772,0,0,1-1.017-.681l-1.873-2.575a4.283,4.283,0,0,0-4.146-1.719l-3.146.5a1.778,1.778,0,0,1-1.2-.239l-2.724-1.661a4.281,4.281,0,0,0-4.477,0l-2.723,1.661a1.775,1.775,0,0,1-1.2.238l-3.146-.5a4.284,4.284,0,0,0-4.146,1.718l-1.872,2.574a1.778,1.778,0,0,1-1.019.682l-3.1.75a4.285,4.285,0,0,0-3.168,3.167l-.75,3.1a1.771,1.771,0,0,1-.681,1.018l-2.574,1.873a4.282,4.282,0,0,0-1.718,4.146l.5,3.146a1.782,1.782,0,0,1-.238,1.2l-1.662,2.725a4.285,4.285,0,0,0,0,4.477l1.661,2.724a1.774,1.774,0,0,1,.238,1.2l-.495,3.145a4.281,4.281,0,0,0,1.717,4.146l2.574,1.873a1.773,1.773,0,0,1,.681,1.018l.749,3.1a4.283,4.283,0,0,0,3.168,3.168l1.294.313-8.754,19.529a1.262,1.262,0,0,0,1.3,1.77l7.044-.842,4.058,5.819a1.263,1.263,0,0,0,1.035.541c.039,0,.079,0,.119-.006a1.261,1.261,0,0,0,1.033-.741l8.941-19.946,1.133.691a4.284,4.284,0,0,0,4.477,0l1.174-.716,8.952,19.97a1.26,1.26,0,0,0,1.034.741c.039,0,.078.006.118.006a1.263,1.263,0,0,0,1.035-.541l4.058-5.819,7.044.842a1.263,1.263,0,0,0,1.3-1.77l-8.759-19.54,1.245-.3a4.284,4.284,0,0,0,3.167-3.168l.75-3.1a1.779,1.779,0,0,1,.681-1.019l2.575-1.872a4.281,4.281,0,0,0,1.718-4.146l-.495-3.146a1.776,1.776,0,0,1,.238-1.2Zm-43.441,43.687-3.215-4.612a1.263,1.263,0,0,0-1.186-.531l-5.582.667,7.976-17.792a1.784,1.784,0,0,1,.385.383l1.872,2.574a4.3,4.3,0,0,0,.6.664l-4.2,9.365a1.262,1.262,0,1,0,2.3,1.033l4.183-9.332a4.352,4.352,0,0,0,1.261-.011l3.146-.495a1.763,1.763,0,0,1,.564,0Zm37.443-4.476-5.583-.667a1.264,1.264,0,0,0-1.186.531l-3.216,4.612-8.109-18.09a1.751,1.751,0,0,1,.515,0l3.146.5a4.341,4.341,0,0,0,1.311,0l4.186,9.339a1.262,1.262,0,1,0,2.3-1.033l-4.214-9.4a4.236,4.236,0,0,0,.558-.628l1.873-2.574a1.8,1.8,0,0,1,.424-.414Zm3.841-40.525-1.661,2.723a4.306,4.306,0,0,0-.577,2.907l.5,3.147a1.767,1.767,0,0,1-.71,1.71l-2.574,1.873a4.3,4.3,0,0,0-1.65,2.466l-.749,3.1a1.769,1.769,0,0,1-1.308,1.309l-3.1.749a4.308,4.308,0,0,0-2.466,1.651l-1.872,2.573a1.767,1.767,0,0,1-1.712.709l-3.145-.5a4.3,4.3,0,0,0-2.907.578l-2.723,1.66a1.771,1.771,0,0,1-1.849,0l-2.724-1.661a4.309,4.309,0,0,0-2.907-.577l-3.147.5a1.768,1.768,0,0,1-1.711-.709l-1.873-2.575a4.3,4.3,0,0,0-2.465-1.65l-3.1-.75a1.769,1.769,0,0,1-1.308-1.308l-.75-3.1a4.3,4.3,0,0,0-1.65-2.467l-2.573-1.873a1.767,1.767,0,0,1-.71-1.711l.5-3.146a4.308,4.308,0,0,0-.576-2.907l-1.661-2.724a1.767,1.767,0,0,1,0-1.848l1.661-2.724a4.309,4.309,0,0,0,.576-2.907l-.495-3.147a1.768,1.768,0,0,1,.709-1.711l2.574-1.873a4.3,4.3,0,0,0,1.65-2.465l.75-3.1a1.766,1.766,0,0,1,1.308-1.309l3.1-.749a4.3,4.3,0,0,0,2.466-1.651l1.873-2.574a1.766,1.766,0,0,1,1.711-.709l3.146.5a4.3,4.3,0,0,0,2.907-.577l2.723-1.661a1.775,1.775,0,0,1,1.849,0l2.723,1.661a4.3,4.3,0,0,0,2.907.577l3.146-.5a1.77,1.77,0,0,1,1.712.709l1.872,2.575a4.306,4.306,0,0,0,2.466,1.65l3.1.75a1.767,1.767,0,0,1,1.308,1.308l.75,3.1a4.312,4.312,0,0,0,1.65,2.467l2.574,1.872a1.768,1.768,0,0,1,.709,1.712l-.495,3.145a4.309,4.309,0,0,0,.576,2.907l1.661,2.724a1.767,1.767,0,0,1,0,1.849Zm0,0" transform="translate(-896.144 -2490.351)" fill="#374354"/>
      </g>
      <path id="Path_1384" data-name="Path 1384" d="M952.369,2528.039a2.259,2.259,0,0,0-1.9-1.56l-7.6-.9-3.2-6.946a2.282,2.282,0,0,0-4.143,0l-3.2,6.946-7.6.9a2.28,2.28,0,0,0-1.28,3.938l5.616,5.195-1.49,7.5a2.276,2.276,0,0,0,3.351,2.435l6.675-3.736,6.675,3.736a2.281,2.281,0,0,0,3.351-2.435l-1.491-7.5,5.616-5.193a2.262,2.262,0,0,0,.621-2.381Zm-8.469,6.2a1.265,1.265,0,0,0-.382,1.172l1.526,7.678-6.83-3.824a1.266,1.266,0,0,0-1.233,0l-6.831,3.824,1.526-7.678a1.262,1.262,0,0,0-.381-1.172l-5.747-5.315,7.774-.922a1.262,1.262,0,0,0,1-.725l3.279-7.108,3.278,7.108a1.262,1.262,0,0,0,1,.725l7.774.922Zm0,0" transform="translate(-907.23 -2501.598)" fill="#374354"/>
    </g>
  </g>
</svg>
