<svg xmlns="http://www.w3.org/2000/svg" width="148.789" height="118.312" viewBox="0 0 148.789 118.312">
  <g id="Group_3799" data-name="Group 3799" transform="translate(-470.374 -1329.949)">
    <g id="Group_3797" data-name="Group 3797">
      <g id="Group_3703" data-name="Group 3703" transform="translate(475.484 1352.286)">
        <rect id="Rectangle_328" data-name="Rectangle 328" width="138.569" height="95.975" rx="5" fill="#cdccca"/>
      </g>
      <g id="Group_3704" data-name="Group 3704" transform="translate(475.484 1350.014)">
        <rect id="Rectangle_329" data-name="Rectangle 329" width="138.569" height="95.974" rx="5" fill="#f2f2f2"/>
      </g>
    </g>
    <g id="Group_3705" data-name="Group 3705" transform="translate(470.374 1340.359)">
      <rect id="Rectangle_330" data-name="Rectangle 330" width="148.789" height="22.311" rx="5" transform="translate(0 -3)" fill="#fccd2f"/>
    </g>
    <g id="Group_3708" data-name="Group 3708" transform="translate(498.202 1344.904)">
      <g id="Group_3706" data-name="Group 3706">
        <path id="Path_1244" data-name="Path 1244" d="M136.4,213.808a5.112,5.112,0,1,1-5.113-5.11A5.115,5.115,0,0,1,136.4,213.808Z" transform="translate(-126.172 -208.698)" fill="#fff"/>
      </g>
      <g id="Group_3707" data-name="Group 3707" transform="translate(82.913)">
        <path id="Path_1245" data-name="Path 1245" d="M161.768,213.808a5.11,5.11,0,1,1-5.11-5.11A5.112,5.112,0,0,1,161.768,213.808Z" transform="translate(-151.548 -208.698)" fill="#fff"/>
      </g>
    </g>
    <g id="Group_3709" data-name="Group 3709" transform="translate(500.285 1329.949)">
      <rect id="Rectangle_331" data-name="Rectangle 331" width="5.866" height="22.147" rx="0.86" fill="#cdccca"/>
    </g>
    <g id="Group_3710" data-name="Group 3710" transform="translate(583.292 1329.949)">
      <rect id="Rectangle_332" data-name="Rectangle 332" width="5.868" height="22.147" rx="0.86" fill="#cdccca"/>
    </g>
    <rect id="Rectangle_333" data-name="Rectangle 333" width="15.333" height="15.333" rx="5" transform="translate(479.698 1369.038)" fill="#3ff5b8"/>
    <rect id="Rectangle_334" data-name="Rectangle 334" width="15.333" height="15.333" rx="5" transform="translate(498.793 1369.038)" fill="#fff"/>
    <rect id="Rectangle_335" data-name="Rectangle 335" width="15.333" height="15.333" rx="5" transform="translate(517.889 1369.038)" fill="#fff"/>
    <rect id="Rectangle_336" data-name="Rectangle 336" width="15.335" height="15.333" rx="5" transform="translate(536.984 1369.038)" fill="#3ff5b8"/>
    <rect id="Rectangle_337" data-name="Rectangle 337" width="15.333" height="15.333" rx="5" transform="translate(556.079 1369.038)" fill="#fff"/>
    <rect id="Rectangle_338" data-name="Rectangle 338" width="15.333" height="15.333" rx="5" transform="translate(575.176 1369.038)" fill="#fff"/>
    <rect id="Rectangle_339" data-name="Rectangle 339" width="15.333" height="15.333" rx="5" transform="translate(594.272 1369.038)" fill="#fff"/>
    <rect id="Rectangle_340" data-name="Rectangle 340" width="15.333" height="15.336" rx="5" transform="translate(479.698 1387.637)" fill="#fff"/>
    <rect id="Rectangle_341" data-name="Rectangle 341" width="15.333" height="15.336" rx="5" transform="translate(498.793 1387.637)" fill="#3ff5b8"/>
    <rect id="Rectangle_342" data-name="Rectangle 342" width="15.333" height="15.336" rx="5" transform="translate(517.889 1387.637)" fill="#fff"/>
    <rect id="Rectangle_343" data-name="Rectangle 343" width="15.335" height="15.336" rx="5" transform="translate(536.984 1387.637)" fill="#fff"/>
    <rect id="Rectangle_344" data-name="Rectangle 344" width="15.333" height="15.336" rx="5" transform="translate(556.079 1387.637)" fill="#fff"/>
    <rect id="Rectangle_345" data-name="Rectangle 345" width="15.333" height="15.336" rx="5" transform="translate(575.176 1387.637)" fill="#fff"/>
    <rect id="Rectangle_347" data-name="Rectangle 347" width="15.333" height="15.332" rx="5" transform="translate(479.698 1406.238)" fill="#fff"/>
    <rect id="Rectangle_348" data-name="Rectangle 348" width="15.333" height="15.332" rx="5" transform="translate(498.793 1406.238)" fill="#fff"/>
    <rect id="Rectangle_349" data-name="Rectangle 349" width="15.333" height="15.332" rx="5" transform="translate(517.889 1406.238)" fill="#fff"/>
    <rect id="Rectangle_350" data-name="Rectangle 350" width="15.335" height="15.332" rx="5" transform="translate(536.984 1406.238)" fill="#fff"/>
    <rect id="Rectangle_351" data-name="Rectangle 351" width="15.333" height="15.332" rx="5" transform="translate(556.079 1406.238)" fill="#3ff5b8"/>
    <rect id="Rectangle_352" data-name="Rectangle 352" width="15.333" height="15.332" rx="5" transform="translate(575.176 1406.238)" fill="#fff"/>
    <rect id="Rectangle_353" data-name="Rectangle 353" width="15.333" height="15.332" rx="5" transform="translate(594.272 1406.238)" fill="#fff"/>
    <rect id="Rectangle_354" data-name="Rectangle 354" width="15.333" height="15.332" rx="5" transform="translate(479.698 1424.837)" fill="#fff"/>
    <rect id="Rectangle_355" data-name="Rectangle 355" width="15.333" height="15.332" rx="5" transform="translate(498.793 1424.837)" fill="#fff"/>
    <rect id="Rectangle_356" data-name="Rectangle 356" width="15.333" height="15.332" rx="5" transform="translate(517.889 1424.837)" fill="#fff"/>
    <g id="Group_3798" data-name="Group 3798">
      <rect id="Rectangle_346" data-name="Rectangle 346" width="15.333" height="15.336" rx="5" transform="translate(594.272 1387.637)" fill="#3ff5b8"/>
    </g>
  </g>
</svg>
