<svg xmlns="http://www.w3.org/2000/svg" width="47.266" height="39.318" viewBox="0 0 47.266 39.318">
  <g id="Group_1923" data-name="Group 1923" transform="translate(0 -0.001)">
    <path id="Path_1117" data-name="Path 1117" d="M46.393,4.573a19.023,19.023,0,0,1-3.26,1.094,10.263,10.263,0,0,0,2.684-4.274h0a.534.534,0,0,0-.783-.622h0a19.014,19.014,0,0,1-4.977,2.062,1.43,1.43,0,0,1-.311.035,1.3,1.3,0,0,1-.876-.334A10.18,10.18,0,0,0,32.131,0a11.133,11.133,0,0,0-3.226.5A9.884,9.884,0,0,0,22.259,7.6a10.924,10.924,0,0,0-.242,3.756.373.373,0,0,1-.092.288.368.368,0,0,1-.276.127h-.035A26.692,26.692,0,0,1,3.251,1.958h0a.535.535,0,0,0-.876.069h0A10.187,10.187,0,0,0,4.034,14.412a9.541,9.541,0,0,1-2.327-.9h0a.537.537,0,0,0-.795.461h0a10.219,10.219,0,0,0,5.944,9.4H6.638a9.519,9.519,0,0,1-1.716-.161h0a.539.539,0,0,0-.611.691h0a10.2,10.2,0,0,0,8.064,6.947,18.789,18.789,0,0,1-10.529,3.2H.67a.778.778,0,0,0-.76.588.8.8,0,0,0,.392.887,27.982,27.982,0,0,0,14.054,3.79,28.286,28.286,0,0,0,12-2.546,26.625,26.625,0,0,0,8.79-6.578,28.865,28.865,0,0,0,5.38-9.009,28.385,28.385,0,0,0,1.832-9.861v-.15a1.762,1.762,0,0,1,.645-1.348A20.136,20.136,0,0,0,47.061,5.38h0a.546.546,0,0,0-.668-.806Z" transform="translate(0.115 0)" fill="#374354"/>
  </g>
</svg>
