<svg xmlns="http://www.w3.org/2000/svg" width="203.117" height="224.555" viewBox="0 0 203.117 224.555">
  <g id="Group_3906" data-name="Group 3906" transform="translate(-1204 -286.998)">
    <circle id="Ellipse_3" data-name="Ellipse 3" cx="39.795" cy="39.795" r="39.795" transform="translate(1265.618 360.172)" fill="#3ff5b8"/>
    <g id="Group_3800" data-name="Group 3800" transform="translate(1204.001 286.999)">
      <g id="Group_3786" data-name="Group 3786" transform="translate(4.194 0)">
        <g id="Group_3780" data-name="Group 3780" transform="translate(96.5)">
          <path id="Path_1322" data-name="Path 1322" d="M887.645,127.377v32.87a.865.865,0,0,0,1.73,0v-32.87A.865.865,0,0,0,887.645,127.377Z" transform="translate(-887.645 -94.248)" fill="#fccd2f"/>
          <path id="Path_1323" data-name="Path 1323" d="M887.645,89.256V104.25a.865.865,0,0,0,1.73,0V89.256A.865.865,0,0,0,887.645,89.256Z" transform="translate(-887.645 -88.421)" fill="#fccd2f"/>
        </g>
        <g id="Group_3781" data-name="Group 3781" transform="translate(0 55.685)">
          <path id="Path_1324" data-name="Path 1324" d="M807.166,174.835l28.467,16.435a.865.865,0,0,0,.865-1.5l-28.466-16.435A.866.866,0,0,0,807.166,174.835Z" transform="translate(-778.778 -157.068)" fill="#fccd2f"/>
          <path id="Path_1325" data-name="Path 1325" d="M774.153,155.775l12.984,7.5a.866.866,0,0,0,.866-1.5l-12.985-7.5A.866.866,0,0,0,774.153,155.775Z" transform="translate(-773.731 -154.154)" fill="#fccd2f"/>
        </g>
        <g id="Group_3782" data-name="Group 3782" transform="translate(0 134.543)">
          <path id="Path_1326" data-name="Path 1326" d="M808.032,265.3,836.5,248.864a.866.866,0,0,0-.865-1.5L807.166,263.8A.866.866,0,0,0,808.032,265.3Z" transform="translate(-778.779 -247.243)" fill="#fccd2f"/>
          <path id="Path_1327" data-name="Path 1327" d="M775.018,285.973l12.985-7.5a.866.866,0,0,0-.866-1.5l-12.984,7.5A.866.866,0,0,0,775.018,285.973Z" transform="translate(-773.732 -251.769)" fill="#fccd2f"/>
        </g>
        <g id="Group_3783" data-name="Group 3783" transform="translate(96.5 157.718)">
          <path id="Path_1328" data-name="Path 1328" d="M889.375,308.306v-32.87a.865.865,0,0,0-1.73,0v32.87A.865.865,0,0,0,889.375,308.306Z" transform="translate(-887.645 -274.6)" fill="#fccd2f"/>
          <path id="Path_1329" data-name="Path 1329" d="M889.375,349.653V334.659a.865.865,0,0,0-1.73,0v14.993A.865.865,0,0,0,889.375,349.653Z" transform="translate(-887.645 -283.653)" fill="#fccd2f"/>
        </g>
        <g id="Group_3784" data-name="Group 3784" transform="translate(136.588 134.544)">
          <path id="Path_1330" data-name="Path 1330" d="M964.72,263.8l-28.467-16.435a.866.866,0,0,0-.865,1.5L963.855,265.3A.866.866,0,0,0,964.72,263.8Z" transform="translate(-934.967 -247.243)" fill="#fccd2f"/>
          <path id="Path_1331" data-name="Path 1331" d="M1000.528,284.474l-12.985-7.5a.866.866,0,0,0-.865,1.5l12.985,7.5A.866.866,0,0,0,1000.528,284.474Z" transform="translate(-942.807 -251.77)" fill="#fccd2f"/>
        </g>
        <g id="Group_3785" data-name="Group 3785" transform="translate(136.588 55.685)">
          <path id="Path_1332" data-name="Path 1332" d="M963.855,173.337l-28.467,16.435a.865.865,0,0,0,.865,1.5l28.467-16.435A.865.865,0,0,0,963.855,173.337Z" transform="translate(-934.967 -157.068)" fill="#fccd2f"/>
          <path id="Path_1333" data-name="Path 1333" d="M999.663,154.276l-12.985,7.5a.865.865,0,0,0,.865,1.5l12.985-7.5A.866.866,0,0,0,999.663,154.276Z" transform="translate(-942.808 -154.154)" fill="#fccd2f"/>
        </g>
      </g>
      <g id="Group_3787" data-name="Group 3787" transform="translate(0 14.966)">
        <path id="Path_1334" data-name="Path 1334" d="M851.953,263.155l9.325-10.994a.866.866,0,0,0-1.32-1.119l-9.325,10.994A.866.866,0,0,0,851.953,263.155Z" transform="translate(-781.261 -128.2)" fill="#fccd2f"/>
        <path id="Path_1335" data-name="Path 1335" d="M811,307.468l27.976-32.984a.866.866,0,0,0-1.32-1.119l-27.976,32.984A.866.866,0,0,0,811,307.468Z" transform="translate(-775.002 -131.612)" fill="#fccd2f"/>
        <path id="Path_1336" data-name="Path 1336" d="M907.838,272.133l-4.859-13.573a.866.866,0,0,0-1.629.583l4.859,13.574A.866.866,0,0,0,907.838,272.133Z" transform="translate(-789.038 -129.311)" fill="#fccd2f"/>
        <path id="Path_1337" data-name="Path 1337" d="M927.422,326.838l-14.577-40.719a.866.866,0,0,0-1.629.583l14.578,40.72A.866.866,0,0,0,927.422,326.838Z" transform="translate(-790.546 -133.524)" fill="#fccd2f"/>
        <path id="Path_1338" data-name="Path 1338" d="M942.717,229.675,928.533,227.1a.866.866,0,0,0-.309,1.7l14.184,2.579A.866.866,0,0,0,942.717,229.675Z" transform="translate(-793.05 -124.583)" fill="#fccd2f"/>
        <path id="Path_1339" data-name="Path 1339" d="M999.886,240.067l-42.553-7.735a.865.865,0,0,0-.309,1.7l42.552,7.736A.866.866,0,0,0,999.886,240.067Z" transform="translate(-797.452 -125.384)" fill="#fccd2f"/>
        <path id="Path_1340" data-name="Path 1340" d="M923.383,176.263l-9.325,10.995a.865.865,0,0,0,1.319,1.119l9.325-10.995A.865.865,0,0,0,923.383,176.263Z" transform="translate(-790.957 -116.769)" fill="#fccd2f"/>
        <path id="Path_1341" data-name="Path 1341" d="M960.967,127.982l-27.976,32.985a.865.865,0,0,0,1.319,1.118L962.286,129.1A.865.865,0,0,0,960.967,127.982Z" transform="translate(-793.851 -109.388)" fill="#fccd2f"/>
        <path id="Path_1342" data-name="Path 1342" d="M868.3,166.827l4.859,13.574a.866.866,0,0,0,1.629-.584l-4.859-13.573A.866.866,0,0,0,868.3,166.827Z" transform="translate(-783.986 -115.199)" fill="#fccd2f"/>
        <path id="Path_1343" data-name="Path 1343" d="M846.965,107.223l14.577,40.72a.866.866,0,0,0,1.629-.583l-14.577-40.72A.866.866,0,0,0,846.965,107.223Z" transform="translate(-780.724 -106.087)" fill="#fccd2f"/>
        <path id="Path_1344" data-name="Path 1344" d="M831.752,211.261l14.184,2.579a.865.865,0,0,0,.309-1.7l-14.184-2.579A.865.865,0,0,0,831.752,211.261Z" transform="translate(-778.302 -121.902)" fill="#fccd2f"/>
        <path id="Path_1345" data-name="Path 1345" d="M769.465,199.938l42.553,7.736a.866.866,0,0,0,.309-1.7l-42.553-7.735A.865.865,0,0,0,769.465,199.938Z" transform="translate(-768.781 -120.171)" fill="#fccd2f"/>
      </g>
      <g id="Group_3794" data-name="Group 3794" transform="translate(3.291 18.476)">
        <g id="Group_3788" data-name="Group 3788" transform="translate(33.971 16.971)">
          <path id="Path_1346" data-name="Path 1346" d="M827.38,148.917l28.107,33.627a.866.866,0,0,0,1.327-1.11l-28.108-33.627A.865.865,0,0,0,827.38,148.917Z" transform="translate(-814.97 -132.899)" fill="#3ff5b8" stroke="rgba(0,0,0,0)" stroke-width="1"/>
          <path id="Path_1347" data-name="Path 1347" d="M812.973,131.681l6.287,7.522a.866.866,0,0,0,1.327-1.11l-6.286-7.522A.866.866,0,0,0,812.973,131.681Z" transform="translate(-812.768 -130.264)" fill="#3ff5b8" stroke="rgba(0,0,0,0)" stroke-width="1"/>
        </g>
        <g id="Group_3789" data-name="Group 3789" transform="translate(0 99.04)">
          <path id="Path_1348" data-name="Path 1348" d="M795.783,236.389l43.176-7.528a.866.866,0,0,0-.3-1.7l-43.176,7.528A.865.865,0,0,0,795.783,236.389Z" transform="translate(-776.049 -227.142)" fill="#3ff5b8" stroke="rgba(0,0,0,0)" stroke-width="1"/>
          <path id="Path_1349" data-name="Path 1349" d="M773.652,241.3l9.658-1.684a.865.865,0,0,0-.3-1.7l-9.657,1.683A.866.866,0,0,0,773.652,241.3Z" transform="translate(-772.666 -228.787)" fill="#3ff5b8" stroke="rgba(0,0,0,0)" stroke-width="1"/>
        </g>
        <g id="Group_3790" data-name="Group 3790" transform="translate(63.395 126.715)">
          <path id="Path_1350" data-name="Path 1350" d="M856.906,302.11l15.068-41.155a.866.866,0,0,0-1.625-.6l-15.068,41.156A.866.866,0,0,0,856.906,302.11Z" transform="translate(-848.681 -259.812)" fill="#3ff5b8" stroke="rgba(0,0,0,0)" stroke-width="1"/>
          <path id="Path_1351" data-name="Path 1351" d="M849.183,328.971l3.37-9.207a.865.865,0,0,0-1.624-.595l-3.371,9.206A.866.866,0,0,0,849.183,328.971Z" transform="translate(-847.5 -268.802)" fill="#3ff5b8" stroke="rgba(0,0,0,0)" stroke-width="1"/>
        </g>
        <g id="Group_3791" data-name="Group 3791" transform="translate(120.513 120.507)">
          <path id="Path_1352" data-name="Path 1352" d="M944.566,286.418l-28.108-33.628a.866.866,0,0,0-1.327,1.11l28.108,33.627A.865.865,0,0,0,944.566,286.418Z" transform="translate(-914.926 -252.483)" fill="#3ff5b8" stroke="rgba(0,0,0,0)" stroke-width="1"/>
          <path id="Path_1353" data-name="Path 1353" d="M962.911,308.365l-6.287-7.523a.866.866,0,0,0-1.328,1.11l6.287,7.522A.865.865,0,0,0,962.911,308.365Z" transform="translate(-921.066 -259.829)" fill="#3ff5b8" stroke="rgba(0,0,0,0)" stroke-width="1"/>
        </g>
        <g id="Group_3792" data-name="Group 3792" transform="translate(132.936 75.86)">
          <path id="Path_1354" data-name="Path 1354" d="M973.455,203.653l-43.176,7.528a.866.866,0,0,0,.3,1.7l43.175-7.528A.866.866,0,0,0,973.455,203.653Z" transform="translate(-929.59 -200.369)" fill="#3ff5b8" stroke="rgba(0,0,0,0)" stroke-width="1"/>
          <path id="Path_1355" data-name="Path 1355" d="M1001.634,199.794l-9.658,1.684a.866.866,0,0,0,.3,1.7l9.658-1.684A.866.866,0,0,0,1001.634,199.794Z" transform="translate(-939.021 -199.779)" fill="#3ff5b8" stroke="rgba(0,0,0,0)" stroke-width="1"/>
        </g>
        <g id="Group_3793" data-name="Group 3793" transform="translate(109.788)">
          <path id="Path_1356" data-name="Path 1356" d="M917.392,131.873l-15.069,41.155a.866.866,0,0,0,1.625.595l15.068-41.155A.865.865,0,0,0,917.392,131.873Z" transform="translate(-902.266 -113.455)" fill="#3ff5b8" stroke="rgba(0,0,0,0)" stroke-width="1"/>
          <path id="Path_1357" data-name="Path 1357" d="M927.226,110.778l-3.371,9.206a.866.866,0,0,0,1.625.595l3.37-9.206A.865.865,0,0,0,927.226,110.778Z" transform="translate(-905.557 -110.23)" fill="#3ff5b8" stroke="rgba(0,0,0,0)" stroke-width="1"/>
        </g>
      </g>
    </g>
    <path id="Path_1465" data-name="Path 1465" d="M-101.339,141.6a1.83,1.83,0,0,1-1.293-.536l-7.114-7.114a1.83,1.83,0,0,1,0-2.586,1.827,1.827,0,0,1,2.586,0l5.821,5.821,18.5-18.5a1.827,1.827,0,0,1,2.586,0,1.827,1.827,0,0,1,0,2.586l-19.8,19.8A1.824,1.824,0,0,1-101.339,141.6Z" transform="translate(1400.577 271.121)" fill="#fff"/>
  </g>
</svg>
