<svg xmlns="http://www.w3.org/2000/svg" width="158.228" height="174.926" viewBox="0 0 158.228 174.926">
  <g id="Group_3800" data-name="Group 3800" transform="translate(-768.782 -88.421)">
    <g id="Group_3786" data-name="Group 3786" transform="translate(772.048 88.421)">
      <g id="Group_3780" data-name="Group 3780" transform="translate(75.173)">
        <path id="Path_1322" data-name="Path 1322" d="M887.645,127.193V152.8a.674.674,0,0,0,1.348,0V127.193A.674.674,0,0,0,887.645,127.193Z" transform="translate(-887.645 -101.385)" fill="#fccd2f"/>
        <path id="Path_1323" data-name="Path 1323" d="M887.645,89.072v11.68a.674.674,0,0,0,1.348,0V89.072A.674.674,0,0,0,887.645,89.072Z" transform="translate(-887.645 -88.421)" fill="#fccd2f"/>
      </g>
      <g id="Group_3781" data-name="Group 3781" transform="translate(0 43.378)">
        <path id="Path_1324" data-name="Path 1324" d="M807.073,174.477l22.176,12.8a.674.674,0,0,0,.674-1.167l-22.175-12.8A.674.674,0,0,0,807.073,174.477Z" transform="translate(-784.959 -160.637)" fill="#fccd2f"/>
        <path id="Path_1325" data-name="Path 1325" d="M774.06,155.416l10.114,5.84a.674.674,0,0,0,.674-1.167l-10.115-5.84A.674.674,0,0,0,774.06,155.416Z" transform="translate(-773.731 -154.154)" fill="#fccd2f"/>
      </g>
      <g id="Group_3782" data-name="Group 3782" transform="translate(0 104.808)">
        <path id="Path_1326" data-name="Path 1326" d="M807.747,261.308l22.175-12.8a.674.674,0,0,0-.674-1.167l-22.176,12.8A.675.675,0,0,0,807.747,261.308Z" transform="translate(-784.959 -247.243)" fill="#fccd2f"/>
        <path id="Path_1327" data-name="Path 1327" d="M774.734,283.958l10.115-5.84a.675.675,0,0,0-.674-1.167l-10.115,5.84A.674.674,0,0,0,774.734,283.958Z" transform="translate(-773.732 -257.314)" fill="#fccd2f"/>
      </g>
      <g id="Group_3783" data-name="Group 3783" transform="translate(75.173 122.862)">
        <path id="Path_1328" data-name="Path 1328" d="M888.993,300.856V275.251a.674.674,0,0,0-1.348,0v25.606A.674.674,0,0,0,888.993,300.856Z" transform="translate(-887.645 -274.6)" fill="#fccd2f"/>
        <path id="Path_1329" data-name="Path 1329" d="M888.993,346.154v-11.68a.674.674,0,0,0-1.348,0v11.68A.674.674,0,0,0,888.993,346.154Z" transform="translate(-887.645 -294.741)" fill="#fccd2f"/>
      </g>
      <g id="Group_3784" data-name="Group 3784" transform="translate(106.401 104.809)">
        <path id="Path_1330" data-name="Path 1330" d="M958.144,260.141l-22.176-12.8a.674.674,0,0,0-.674,1.167l22.176,12.8A.674.674,0,0,0,958.144,260.141Z" transform="translate(-934.967 -247.243)" fill="#fccd2f"/>
        <path id="Path_1331" data-name="Path 1331" d="M997.374,282.79l-10.115-5.84a.674.674,0,0,0-.674,1.167l10.115,5.84A.674.674,0,0,0,997.374,282.79Z" transform="translate(-952.41 -257.314)" fill="#fccd2f"/>
      </g>
      <g id="Group_3785" data-name="Group 3785" transform="translate(106.401 43.378)">
        <path id="Path_1332" data-name="Path 1332" d="M957.471,173.31l-22.176,12.8a.674.674,0,0,0,.674,1.167l22.176-12.8A.674.674,0,0,0,957.471,173.31Z" transform="translate(-934.968 -160.636)" fill="#fccd2f"/>
        <path id="Path_1333" data-name="Path 1333" d="M996.7,154.249l-10.115,5.84a.674.674,0,0,0,.674,1.167l10.115-5.84A.674.674,0,0,0,996.7,154.249Z" transform="translate(-952.411 -154.154)" fill="#fccd2f"/>
      </g>
    </g>
    <g id="Group_3787" data-name="Group 3787" transform="translate(768.781 100.079)">
      <path id="Path_1334" data-name="Path 1334" d="M851.615,260.411l7.264-8.564a.674.674,0,0,0-1.028-.872l-7.264,8.564A.674.674,0,0,0,851.615,260.411Z" transform="translate(-796.547 -155.282)" fill="#fccd2f"/>
      <path id="Path_1335" data-name="Path 1335" d="M810.665,299.864l21.793-25.694a.674.674,0,0,0-1.028-.872l-21.793,25.694A.674.674,0,0,0,810.665,299.864Z" transform="translate(-782.62 -162.874)" fill="#fccd2f"/>
      <path id="Path_1336" data-name="Path 1336" d="M906.392,269.011l-3.785-10.573a.674.674,0,0,0-1.269.454l3.785,10.574A.674.674,0,0,0,906.392,269.011Z" transform="translate(-813.847 -157.754)" fill="#fccd2f"/>
      <path id="Path_1337" data-name="Path 1337" d="M923.828,317.717,912.473,286a.674.674,0,0,0-1.269.454l11.356,31.721A.674.674,0,0,0,923.828,317.717Z" transform="translate(-817.203 -167.126)" fill="#fccd2f"/>
      <path id="Path_1338" data-name="Path 1338" d="M939.363,229.1l-11.05-2.009a.674.674,0,0,0-.241,1.326l11.05,2.009A.674.674,0,0,0,939.363,229.1Z" transform="translate(-822.773 -147.236)" fill="#fccd2f"/>
      <path id="Path_1339" data-name="Path 1339" d="M990.262,238.354l-33.149-6.026a.674.674,0,0,0-.241,1.326l33.148,6.026A.675.675,0,0,0,990.262,238.354Z" transform="translate(-832.568 -149.016)" fill="#fccd2f"/>
      <path id="Path_1340" data-name="Path 1340" d="M921.276,176.2l-7.264,8.565a.674.674,0,0,0,1.028.872l7.264-8.565A.674.674,0,0,0,921.276,176.2Z" transform="translate(-818.117 -129.85)" fill="#fccd2f"/>
      <path id="Path_1341" data-name="Path 1341" d="M954.738,127.915,932.945,153.61a.674.674,0,0,0,1.027.871l21.793-25.694A.674.674,0,0,0,954.738,127.915Z" transform="translate(-824.556 -113.43)" fill="#fccd2f"/>
      <path id="Path_1342" data-name="Path 1342" d="M868.29,166.576l3.785,10.574a.674.674,0,0,0,1.269-.455l-3.785-10.573A.674.674,0,0,0,868.29,166.576Z" transform="translate(-802.608 -126.358)" fill="#fccd2f"/>
      <path id="Path_1343" data-name="Path 1343" d="M846.953,106.972l11.355,31.721a.674.674,0,0,0,1.269-.454l-11.355-31.721A.674.674,0,0,0,846.953,106.972Z" transform="translate(-795.351 -106.087)" fill="#fccd2f"/>
      <path id="Path_1344" data-name="Path 1344" d="M831.6,210.881l11.05,2.009a.674.674,0,0,0,.241-1.326l-11.05-2.009A.674.674,0,0,0,831.6,210.881Z" transform="translate(-789.964 -141.271)" fill="#fccd2f"/>
      <path id="Path_1345" data-name="Path 1345" d="M769.313,199.558l33.149,6.026a.674.674,0,0,0,.241-1.326l-33.149-6.026A.674.674,0,0,0,769.313,199.558Z" transform="translate(-768.781 -137.421)" fill="#fccd2f"/>
    </g>
    <g id="Group_3794" data-name="Group 3794" transform="translate(771.345 102.813)">
      <g id="Group_3788" data-name="Group 3788" transform="translate(26.463 13.221)">
        <path id="Path_1346" data-name="Path 1346" d="M827.335,148.6l21.9,26.2a.674.674,0,0,0,1.034-.864l-21.9-26.2A.674.674,0,0,0,827.335,148.6Z" transform="translate(-817.667 -136.126)" fill="#3ff5b8" stroke="rgba(0,0,0,0)" stroke-width="1"/>
        <path id="Path_1347" data-name="Path 1347" d="M812.928,131.368l4.9,5.859a.674.674,0,0,0,1.034-.864l-4.9-5.859A.674.674,0,0,0,812.928,131.368Z" transform="translate(-812.768 -130.264)" fill="#3ff5b8" stroke="rgba(0,0,0,0)" stroke-width="1"/>
      </g>
      <g id="Group_3789" data-name="Group 3789" transform="translate(0 77.151)">
        <path id="Path_1348" data-name="Path 1348" d="M795.565,234.346l33.634-5.864a.674.674,0,0,0-.232-1.328l-33.634,5.865A.674.674,0,0,0,795.565,234.346Z" transform="translate(-780.192 -227.142)" fill="#3ff5b8" stroke="rgba(0,0,0,0)" stroke-width="1"/>
        <path id="Path_1349" data-name="Path 1349" d="M773.434,240.551l7.524-1.312a.674.674,0,0,0-.232-1.327l-7.523,1.311A.674.674,0,0,0,773.434,240.551Z" transform="translate(-772.666 -230.801)" fill="#3ff5b8" stroke="rgba(0,0,0,0)" stroke-width="1"/>
      </g>
      <g id="Group_3790" data-name="Group 3790" transform="translate(49.384 98.71)">
        <path id="Path_1350" data-name="Path 1350" d="M856.534,292.762l11.738-32.06a.674.674,0,0,0-1.266-.464L855.269,292.3A.674.674,0,0,0,856.534,292.762Z" transform="translate(-850.127 -259.812)" fill="#3ff5b8" stroke="rgba(0,0,0,0)" stroke-width="1"/>
        <path id="Path_1351" data-name="Path 1351" d="M848.811,326.683l2.625-7.172a.674.674,0,0,0-1.265-.463l-2.626,7.171A.674.674,0,0,0,848.811,326.683Z" transform="translate(-847.501 -279.812)" fill="#3ff5b8" stroke="rgba(0,0,0,0)" stroke-width="1"/>
      </g>
      <g id="Group_3791" data-name="Group 3791" transform="translate(93.879 93.874)">
        <path id="Path_1352" data-name="Path 1352" d="M938.016,278.918l-21.9-26.2a.674.674,0,0,0-1.034.864l21.9,26.2A.674.674,0,0,0,938.016,278.918Z" transform="translate(-914.926 -252.483)" fill="#3ff5b8" stroke="rgba(0,0,0,0)" stroke-width="1"/>
        <path id="Path_1353" data-name="Path 1353" d="M961.183,306.635l-4.9-5.86a.674.674,0,0,0-1.034.865l4.9,5.859A.674.674,0,0,0,961.183,306.635Z" transform="translate(-928.586 -268.825)" fill="#3ff5b8" stroke="rgba(0,0,0,0)" stroke-width="1"/>
      </g>
      <g id="Group_3792" data-name="Group 3792" transform="translate(103.556 59.094)">
        <path id="Path_1354" data-name="Path 1354" d="M963.761,203.65l-33.634,5.865a.674.674,0,0,0,.232,1.328l33.633-5.865A.674.674,0,0,0,963.761,203.65Z" transform="translate(-929.59 -201.092)" fill="#3ff5b8" stroke="rgba(0,0,0,0)" stroke-width="1"/>
        <path id="Path_1355" data-name="Path 1355" d="M999.347,199.791l-7.524,1.312a.674.674,0,0,0,.232,1.328l7.524-1.312A.674.674,0,0,0,999.347,199.791Z" transform="translate(-950.572 -199.779)" fill="#3ff5b8" stroke="rgba(0,0,0,0)" stroke-width="1"/>
      </g>
      <g id="Group_3793" data-name="Group 3793" transform="translate(85.524)">
        <path id="Path_1356" data-name="Path 1356" d="M914.049,131.752l-11.739,32.06a.674.674,0,0,0,1.266.463l11.738-32.06A.674.674,0,0,0,914.049,131.752Z" transform="translate(-902.266 -117.405)" fill="#3ff5b8" stroke="rgba(0,0,0,0)" stroke-width="1"/>
        <path id="Path_1357" data-name="Path 1357" d="M926.469,110.657l-2.626,7.171a.674.674,0,0,0,1.266.463l2.625-7.171A.674.674,0,0,0,926.469,110.657Z" transform="translate(-909.589 -110.23)" fill="#3ff5b8" stroke="rgba(0,0,0,0)" stroke-width="1"/>
      </g>
    </g>
  </g>
</svg>
