<svg xmlns="http://www.w3.org/2000/svg" xmlns:xlink="http://www.w3.org/1999/xlink" width="241.867" height="214" viewBox="0 0 241.867 214">
  <defs>
    <filter id="Ellipse_1" x="0" y="0" width="214" height="214" filterUnits="userSpaceOnUse">
      <feOffset input="SourceAlpha"/>
      <feGaussianBlur stdDeviation="10" result="blur"/>
      <feFlood flood-color="#374354" flood-opacity="0.149"/>
      <feComposite operator="in" in2="blur"/>
      <feComposite in="SourceGraphic"/>
    </filter>
  </defs>
  <g id="Group_3965" data-name="Group 3965" transform="translate(-975 -2755)">
    <g id="Group_3961" data-name="Group 3961" transform="translate(-2 -277)">
      <g transform="matrix(1, 0, 0, 1, 977, 3032)" filter="url(#Ellipse_1)">
        <circle id="Ellipse_1-2" data-name="Ellipse 1" cx="77" cy="77" r="77" transform="translate(30 30)" fill="#fff"/>
      </g>
      <g id="Group_3959" data-name="Group 3959" transform="translate(1052 3103)">
        <path id="Path_1387" data-name="Path 1387" d="M1392.391,2549.2v-1.161a36.734,36.734,0,0,0-35.758-36.741,3.368,3.368,0,0,0-3.241-2.467h-5.541a3.366,3.366,0,0,0-3.363,3.362v5.689a4.864,4.864,0,0,0-3.954,4.771v4.729a20.76,20.76,0,0,0-9.5,5.316,20.447,20.447,0,0,0-6.189,14.753c0,4.819,1.608,10.3,4.78,16.287a1.121,1.121,0,1,0,1.981-1.049c-2.75-5.193-4.256-9.935-4.487-14.118h39.2a1.121,1.121,0,1,0,0-2.242h-39.194a18.515,18.515,0,0,1,18.49-17.326h10.025a18.515,18.515,0,0,1,18.49,17.326H1370.8a1.121,1.121,0,0,0,0,2.242h3.329c-.3,5.275-2.7,11.5-7.135,18.522a8.673,8.673,0,0,1-7.377,4.05h-18.068a8.672,8.672,0,0,1-7.371-4.04q-.188-.3-.372-.595a1.121,1.121,0,1,0-1.906,1.18q.191.307.385.613a10.9,10.9,0,0,0,9.264,5.083h18.068a10.907,10.907,0,0,0,9.273-5.1c4.985-7.892,7.515-14.9,7.515-20.84h0a20.443,20.443,0,0,0-6.191-14.758,20.742,20.742,0,0,0-9.5-5.311v-4.73a4.862,4.862,0,0,0-3.27-4.588,30.067,30.067,0,0,1,28.227,29.974v1.161a12.329,12.329,0,1,0,6.726,0Zm-44.54-38.127h5.541a1.122,1.122,0,0,1,1.121,1.121v5.6h-7.783v-5.6a1.122,1.122,0,0,1,1.121-1.121Zm10.616,11.581v4.3a20.983,20.983,0,0,0-2.833-.192h-10.025a20.978,20.978,0,0,0-2.833.192v-4.3a2.618,2.618,0,0,1,2.615-2.615h10.461a2.618,2.618,0,0,1,2.615,2.615Zm-1.712-6.865v-2.243a34.49,34.49,0,0,1,33.394,34.493v.744c-.37-.033-.743-.053-1.121-.053s-.751.02-1.121.053v-.744a32.311,32.311,0,0,0-31.152-32.251Zm32.273,55.357a10.087,10.087,0,1,1,10.088-10.087,10.1,10.1,0,0,1-10.088,10.087Zm0,0" transform="translate(-1324.842 -2505.064)" fill="#374354"/>
        <path id="Path_1388" data-name="Path 1388" d="M1347.613,2511.139a1.121,1.121,0,1,0,1.586-1.584l-1.314-1.313a1.121,1.121,0,0,0-1.585,1.584Zm0,0" transform="translate(-1332.26 -2504.743)" fill="#374354"/>
        <path id="Path_1389" data-name="Path 1389" d="M1342.208,2505.27a1.121,1.121,0,1,0-.792-.328,1.116,1.116,0,0,0,.792.328Zm0,0" transform="translate(-1330.545 -2503.029)" fill="#374354"/>
        <path id="Path_1390" data-name="Path 1390" d="M1332.872,2517.942h10.488a1.121,1.121,0,0,0,0-2.242h-10.488a1.121,1.121,0,0,0,0,2.242Zm0,0" transform="translate(-1327.268 -2507.477)" fill="#374354"/>
        <path id="Path_1391" data-name="Path 1391" d="M1325.963,2517.942a1.121,1.121,0,1,0-1.121-1.121,1.122,1.122,0,0,0,1.121,1.121Zm0,0" transform="translate(-1324.842 -2507.477)" fill="#374354"/>
        <path id="Path_1392" data-name="Path 1392" d="M1336.809,2533.306a1.125,1.125,0,1,0,.792-.327,1.117,1.117,0,0,0-.792.327Zm0,0" transform="translate(-1328.927 -2513.544)" fill="#374354"/>
        <path id="Path_1393" data-name="Path 1393" d="M1346.788,2521.465a1.111,1.111,0,0,0-.792.329l-4.3,4.3a1.121,1.121,0,0,0,1.585,1.585l4.3-4.3a1.12,1.12,0,0,0-.794-1.912Zm0,0" transform="translate(-1330.643 -2509.501)" fill="#374354"/>
      </g>
    </g>
    <g id="Group_3754" data-name="Group 3754" transform="translate(1088.554 2952.986)">
      <circle id="Ellipse_12" data-name="Ellipse 12" cx="4.334" cy="4.334" r="4.334" transform="translate(0 0)" fill="#fccd2f"/>
    </g>
    <g id="Group_3963" data-name="Group 3963" transform="translate(996.554 2807.986)">
      <circle id="Ellipse_12-2" data-name="Ellipse 12" cx="4.334" cy="4.334" r="4.334" transform="translate(0 0)" fill="#fccd2f"/>
    </g>
    <g id="Ellipse_32" data-name="Ellipse 32" transform="translate(1204.471 2838.273) rotate(43)" fill="none" stroke="#fccd2f" stroke-width="3">
      <circle cx="8.475" cy="8.475" r="8.475" stroke="none"/>
      <circle cx="8.475" cy="8.475" r="6.975" fill="none"/>
    </g>
    <circle id="Ellipse_16" data-name="Ellipse 16" cx="8.475" cy="8.475" r="8.475" transform="translate(1164.417 2786.543) rotate(43)" fill="#3ff5b8"/>
    <circle id="Ellipse_26" data-name="Ellipse 26" cx="3.45" cy="3.45" r="3.45" transform="translate(992.649 2905.391) rotate(43)" fill="#3ff5b8"/>
    <circle id="Ellipse_33" data-name="Ellipse 33" cx="3.45" cy="3.45" r="3.45" transform="translate(1192.649 2879.391) rotate(43)" fill="#3ff5b8"/>
  </g>
</svg>
